PathFileType	4	(X/Y/Z)	C:\Users\Basilio\Documents\Thesis Gigler\squatting_fais\c3dfiles\075\SJ_pre5\markers_experimental.trc
DataRate	CameraRate	NumFrames	NumMarkers	Units	OrigDataRate	OrigDataStartFrame	OrigNumFrames
200.000000	200.000000	4	61	mm	200.000000	367	1470
Frame#	Time	FHD			LBHD			RBHD			C7			T10			CLAV			LSHO			LUUPA			LMUPA			LDUPA			LLEP			LMEP			LRAD			LUL			LRFIN			RSHO			RUPA1			RMUPA			RDUPA			RLEP			RMEP			RRAD			RUL			RUFIN			LASI			RASI			USACR			LSACR			RSACR			LTHI1			LTHI2			LTHI3			LTHI4			LLFC			LMFC			LTIB1			LTIB2			LTIB3			LTIB4			LLMAL			LMMAL			LHEE			LMT1			LMT2			LMT5			RTHI			RTHI2			RTHI3			RTHI4			RLFC			RMFC			RTIB1			RTIB2			RTIB3			RTIB4			RLMAL			RMMAL			RHEE			RMT1			RMT2			RMT5			
		X1	Y1	Z1	X2	Y2	Z2	X3	Y3	Z3	X4	Y4	Z4	X5	Y5	Z5	X6	Y6	Z6	X7	Y7	Z7	X8	Y8	Z8	X9	Y9	Z9	X10	Y10	Z10	X11	Y11	Z11	X12	Y12	Z12	X13	Y13	Z13	X14	Y14	Z14	X15	Y15	Z15	X16	Y16	Z16	X17	Y17	Z17	X18	Y18	Z18	X19	Y19	Z19	X20	Y20	Z20	X21	Y21	Z21	X22	Y22	Z22	X23	Y23	Z23	X24	Y24	Z24	X25	Y25	Z25	X26	Y26	Z26	X27	Y27	Z27	X28	Y28	Z28	X29	Y29	Z29	X30	Y30	Z30	X31	Y31	Z31	X32	Y32	Z32	X33	Y33	Z33	X34	Y34	Z34	X35	Y35	Z35	X36	Y36	Z36	X37	Y37	Z37	X38	Y38	Z38	X39	Y39	Z39	X40	Y40	Z40	X41	Y41	Z41	X42	Y42	Z42	X43	Y43	Z43	X44	Y44	Z44	X45	Y45	Z45	X46	Y46	Z46	X47	Y47	Z47	X48	Y48	Z48	X49	Y49	Z49	X50	Y50	Z50	X51	Y51	Z51	X52	Y52	Z52	X53	Y53	Z53	X54	Y54	Z54	X55	Y55	Z55	X56	Y56	Z56	X57	Y57	Z57	X58	Y58	Z58	X59	Y59	Z59	X60	Y60	Z60	X61	Y61	Z61	

368	1.835	-220.4890747070313	1700.531860351563	-891.2860107421877	-351.4579772949219	1567.245727539063	-963.2307128906252	-316.2575378417969	1602.649169921875	-809.007751464844	-390.6153869628907	1458.764770507813	-905.5762939453127	-419.4568176269532	1134.997680664063	-908.1306152343752	-250.6277618408204	1392.217407226563	-902.5051879882815	-289.5968627929688	1426.237548828125	-1062.375732421875	-328.7106933593751	1273.680786132813	-1224.65966796875	-296.2612304687501	1236.778686523438	-1212.433227539063	-325.1282958984376	1213.306274414063	-1260.82861328125	-320.7043457031251	1130.597900390625	-1287.25732421875	-401.8928222656251	1121.1044921875	-1242.721435546875	-306.1356201171876	943.2536621093752	-1124.3046875	-260.4965209960938	908.492126464844	-1173.716552734375	-261.2160644531251	936.9451904296877	-1080.117431640625	-292.7045288085938	1427.295776367188	-741.2716064453126	-349.2368164062501	1276.354370117188	-586.1270751953126	-320.1564025878907	1236.045288085938	-591.4320068359376	-358.0337829589844	1216.785522460938	-548.2360839843751	-358.7381286621094	1148.108032226563	-523.8964233398439	-432.7574157714845	1122.305908203125	-556.6917114257814	-313.8871765136719	951.9600830078127	-693.2614746093751	-270.3807067871094	927.6428833007815	-634.4219970703126	-254.5043029785157	945.3818359375002	-732.1091918945314	-259.6653137207032	948.5256958007815	-1030.017700195313	-257.9270324707032	955.0720825195315	-782.004089355469	-414.4616088867189	1036.101196289063	-908.7502441406252	-422.7474975585939	1004.089599609375	-935.221618652344	-422.3153686523439	1007.059204101563	-877.8100585937502	-318.7260742187501	719.2913818359376	-1113.48583984375	-286.7169189453126	641.3636474609376	-1117.2685546875	-241.1239929199219	646.8103027343751	-1101.680053710938	-313.3873291015626	587.3866577148439	-1109.946044921875	-314.9793395996094	480.1090698242189	-1103.454467773438	-268.3178100585938	463.2498474121095	-989.0961914062502	-264.8977355957032	353.9406127929688	-1085.52587890625	-329.6760864257813	321.1281738281251	-1133.94580078125	-288.2128906250001	311.5643920898438	-1116.715087890625	-293.3890380859376	229.5159606933594	-1094.328857421875	-376.5864562988282	93.55152130126955	-1116.214477539063	-338.8807373046876	99.03540802001956	-1037.526123046875	-422.993133544922	47.85528182983399	-1070.851684570313	-210.6046447753907	52.36582565307619	-1077.60009765625	-217.4512786865235	58.44614410400392	-1126.437622070313	-261.7465820312501	42.61052703857423	-1174.751342773438	-326.9868164062501	769.7937011718752	-699.6831665039064	-286.0245971679688	718.6522827148439	-698.0825195312501	-255.1873016357422	725.2737426757814	-709.2346801757814	-309.7455444335938	636.2686767578126	-700.7260742187501	-311.4552917480469	482.7710571289064	-722.8125610351564	-271.3312072753907	466.0580444335939	-841.9439086914065	-268.3828430175782	329.4074401855469	-773.729431152344	-325.2873840332032	259.6824035644532	-711.1358032226564	-289.3984985351563	250.6256408691407	-741.5358886718751	-300.0653381347657	204.0482788085938	-774.6477661132815	-378.1149902343751	90.1124954223633	-732.2818603515626	-343.7926635742188	107.6913375854492	-813.3551025390627	-423.9082946777345	47.9022560119629	-787.7231445312502	-214.6838836669922	59.26165771484376	-770.935241699219	-220.7557983398438	59.45881652832033	-729.2756347656251	-259.1946411132813	35.10952377319337	-680.0980224609376	
369	1.84	-220.6693572998047	1700.544555664063	-891.2903442382815	-351.5676879882813	1567.26025390625	-963.1136474609377	-316.3316650390626	1602.606323242188	-808.9675903320315	-390.6339416503907	1458.671752929688	-905.5212402343752	-419.2635498046876	1134.996459960938	-908.0185546875002	-250.2247619628907	1392.09716796875	-902.1208496093752	-289.6057128906251	1426.199584960938	-1062.265380859375	-328.4960937500001	1273.614379882813	-1224.5244140625	-296.1400451660157	1236.692504882813	-1212.335327148438	-324.9678649902344	1213.31689453125	-1260.789184570313	-320.3706054687501	1130.509765625	-1287.15380859375	-401.6950683593751	1121.072265625	-1242.687866210938	-305.9914550781251	943.2335205078127	-1124.256958007813	-260.4403076171876	908.298034667969	-1173.690063476563	-260.0418090820313	936.7755126953127	-1079.880004882813	-292.7419738769532	1427.238525390625	-741.2263183593751	-349.2504577636719	1276.316040039063	-586.0267333984376	-320.1478271484376	1235.954833984375	-591.4253540039064	-357.9663696289063	1216.7900390625	-548.1267089843751	-358.5648193359376	1148.108032226563	-523.8289184570314	-432.5731506347657	1122.258056640625	-556.5505371093751	-313.7008056640626	951.9876708984377	-693.1669921875001	-270.1404418945313	927.7364501953127	-634.4294433593751	-254.2394714355469	945.3452148437502	-732.0155639648439	-259.3498840332032	948.5422363281252	-1029.988159179688	-257.6931762695313	955.0234375000002	-781.8538818359377	-414.1549072265626	1036.104858398438	-908.6331176757815	-422.5663452148439	1003.931091308594	-935.0649414062502	-422.0063476562501	1007.00390625	-877.7647705078127	-318.5857238769532	719.3223266601564	-1113.4365234375	-286.4675292968751	641.2934570312501	-1117.239135742188	-240.9987792968751	646.7710571289064	-1101.654296875	-313.0132446289063	587.3031616210939	-1109.828491210938	-314.8639526367188	480.1146850585939	-1103.44140625	-268.2543640136719	463.1881713867189	-989.0809326171877	-264.7787475585938	353.9701538085938	-1085.51025390625	-329.5695800781251	321.0468139648438	-1133.890747070313	-287.6361999511719	311.3422546386719	-1116.431762695313	-293.9834289550782	229.5361328125001	-1094.9052734375	-376.5342102050782	93.53054809570314	-1116.169311523438	-338.8558654785157	99.00293731689456	-1037.508056640625	-422.9961547851564	47.85718536376954	-1070.841186523438	-210.5821685791016	52.49239730834962	-1077.598754882813	-217.4381866455079	58.40657424926759	-1126.38330078125	-261.7560424804688	42.59187316894532	-1174.723754882813	-326.7183837890626	769.699645996094	-699.6294555664064	-285.7661437988282	718.6165161132814	-697.9602661132814	-254.977279663086	725.1768798828126	-709.1710205078126	-309.4872741699219	636.2554931640626	-700.5971069335939	-311.2134094238282	482.7064819335939	-722.7018432617189	-271.0989074707032	465.896697998047	-841.8375244140627	-268.1371154785157	329.4102172851563	-773.6109619140627	-325.1537170410157	259.6504821777344	-711.1094360351564	-289.2424011230469	250.4833374023438	-741.4237060546876	-299.9046325683594	204.1107482910157	-774.6551513671877	-378.0943908691407	90.11633300781251	-732.2954101562501	-343.8381347656251	107.6093978881836	-813.3140869140627	-423.8930053710939	47.88996887207032	-787.768249511719	-214.677230834961	59.24667739868165	-770.9411621093752	-220.701156616211	59.49161529541017	-729.2841186523439	-259.1762695312501	35.1428337097168	-680.0852050781251	
370	1.845	-220.8039245605469	1700.526611328125	-891.2237548828127	-351.7219238281251	1567.151733398438	-963.064147949219	-316.3948059082032	1602.607421875	-809.029479980469	-390.6443176269532	1458.588012695313	-905.494567871094	-419.0791625976564	1134.8857421875	-907.9622192382815	-250.6499481201172	1392.230590820313	-902.3596191406252	-289.5673522949219	1426.13818359375	-1062.190185546875	-328.3995971679688	1273.555419921875	-1224.498413085938	-295.7463989257813	1236.610229492188	-1212.239013671875	-324.7076721191407	1213.2958984375	-1260.74853515625	-320.1807250976563	1130.464477539063	-1287.05810546875	-401.4302673339845	1121.053588867188	-1242.711059570313	-305.8150939941407	943.1108398437502	-1124.231079101563	-260.3487243652344	908.1785278320315	-1173.675415039063	-260.8540954589844	936.882263183594	-1080.107543945313	-292.8152465820313	1427.3017578125	-741.1470336914064	-349.2227478027344	1276.298461914063	-585.9785156250001	-320.1231994628907	1235.9326171875	-591.3245239257814	-357.9075317382813	1216.742919921875	-548.0587158203126	-358.4513244628907	1148.057373046875	-523.7536621093751	-432.4569091796876	1122.134643554688	-556.4674072265626	-313.5214538574219	951.9813232421877	-693.0886230468751	-269.8983459472657	927.704284667969	-634.3584594726564	-254.0064544677735	945.2966308593752	-732.0261230468751	-259.0369262695313	948.5738525390627	-1029.898681640625	-257.5652465820313	954.9239501953127	-781.8279418945315	-413.9221496582032	1036.055053710938	-908.5496826171877	-422.2972717285157	1003.838745117188	-934.9844360351565	-421.6845092773439	1007.005310058594	-877.6770629882815	-318.3910827636719	719.2858886718751	-1113.324829101563	-285.8779907226563	641.1417846679689	-1117.025512695313	-240.7840576171876	646.7811889648439	-1101.607299804688	-312.8902282714844	587.3246459960939	-1109.834106445313	-314.7305908203126	480.0681457519532	-1103.405517578125	-268.0245361328126	463.2049255371095	-989.0478515625002	-265.2656250000001	354.0420227050782	-1085.855346679688	-329.5060729980469	321.0943908691407	-1133.86474609375	-287.9906921386719	311.5054931640626	-1116.72998046875	-293.2487792968751	229.500717163086	-1094.3583984375	-376.4768371582032	93.51772308349611	-1116.1767578125	-338.8191833496094	99.01593780517581	-1037.473999023438	-423.0134887695314	47.86004638671876	-1070.85107421875	-210.5686950683594	52.53834915161134	-1077.61474609375	-217.3945770263672	58.41098785400392	-1126.423095703125	-261.8006591796876	42.59502792358399	-1174.7275390625	-326.4875183105469	769.6894531250002	-699.5056152343751	-285.4534606933594	718.6216430664064	-697.8432006835939	-254.6948394775391	725.0981445312501	-709.1003417968751	-309.1464538574219	636.1741333007814	-700.5034179687501	-310.8673400878907	482.700408935547	-722.5822753906251	-270.8331604003907	465.9013061523439	-841.838806152344	-268.2003784179688	329.1271667480469	-773.5726318359377	-324.9743041992188	259.6529541015626	-711.0444946289064	-289.1536865234376	250.4614868164063	-741.4591674804689	-299.8737182617188	204.0259857177735	-774.6142578125002	-378.0277404785157	90.12815093994142	-732.2578735351564	-343.8385925292969	107.7577590942383	-813.3950805664065	-423.8673706054689	47.92672348022462	-787.7114257812502	-214.7051544189454	59.27928924560548	-770.9690551757815	-220.7363433837891	59.40074920654298	-729.2898559570314	-259.1947021484376	35.11497116088868	-680.0816040039064	
371	1.85	-220.9560852050782	1700.537231445313	-891.140808105469	-351.7922058105469	1567.136108398438	-962.992858886719	-316.6235351562501	1602.563110351563	-808.8591918945315	-390.6601867675782	1458.569946289063	-905.4094238281252	-418.9442138671876	1134.797485351563	-907.850036621094	-250.7018585205079	1392.21240234375	-902.2888793945315	-289.5480346679688	1426.117309570313	-1062.082153320313	-328.0910339355469	1273.4560546875	-1224.371215820313	-295.6893920898438	1236.633178710938	-1212.136108398438	-324.7510986328126	1213.300048828125	-1260.733032226563	-319.9013061523438	1130.433959960938	-1286.9638671875	-401.2573547363282	1120.98095703125	-1242.685424804688	-305.6392211914063	943.045593261719	-1124.1435546875	-260.2788391113282	908.060241699219	-1173.6171875	-259.8020629882813	936.6070556640627	-1079.9130859375	-292.8403015136719	1427.249877929688	-741.0541992187501	-349.1765136718751	1276.283325195313	-585.8666381835939	-320.0820922851563	1235.986328125	-591.3508911132814	-357.8489685058594	1216.78369140625	-547.9691162109376	-358.3660278320313	1148.056640625	-523.6440429687501	-432.3272399902345	1122.037963867188	-556.4179687500001	-313.2708435058594	951.9561767578127	-693.0104370117189	-269.6596984863282	927.699890136719	-634.3479614257814	-253.7187652587891	945.3428344726565	-731.9312744140626	-258.7804565429688	948.535827636719	-1029.855346679688	-257.2969360351563	954.848083496094	-781.7730712890627	-413.698944091797	1036.017578125	-908.4094848632815	-422.0819702148439	1003.805114746094	-934.790466308594	-421.5349426269532	1006.953125	-877.567321777344	-318.1946105957032	719.2444458007814	-1113.230102539063	-286.9332275390626	641.5607910156251	-1117.39697265625	-240.0426940917969	646.6172485351564	-1101.341064453125	-312.6856689453126	587.3211059570314	-1109.742797851563	-314.5896911621094	480.0497131347657	-1103.352661132813	-267.9419250488282	463.164764404297	-989.0384521484377	-265.1779479980469	354.0275573730469	-1085.847412109375	-329.4788818359376	321.0858764648438	-1133.7880859375	-287.4096679687501	311.3711242675782	-1116.434326171875	-293.1671142578126	229.463607788086	-1094.317138671875	-376.4418640136719	93.55422210693361	-1116.14990234375	-338.8185119628907	98.97084808349612	-1037.45263671875	-422.9915771484376	47.91438674926759	-1070.792114257813	-210.4883728027344	52.54837036132814	-1077.618530273438	-217.346176147461	58.38124084472658	-1126.414428710938	-261.7507324218751	42.60382843017579	-1174.746459960938	-326.2394714355469	769.6483154296877	-699.4901123046876	-285.2017517089844	718.5289916992189	-697.7206420898439	-254.3763732910157	725.1838378906251	-709.0561523437501	-308.8954772949219	636.1430053710939	-700.3715820312501	-310.5562438964844	482.6495971679689	-722.4652709960939	-270.5603942871094	465.8412475585939	-841.7110595703127	-267.9266357421876	329.1386108398438	-773.5665283203127	-324.8513183593751	259.6119689941407	-711.0010986328126	-288.9856872558594	250.4249877929688	-741.3659667968751	-299.6214599609376	204.0654754638672	-774.5335083007815	-378.0626525878907	90.11711883544923	-732.2835693359376	-343.6693115234376	107.7039947509766	-813.2634887695315	-423.804901123047	47.90615463256837	-787.7221679687502	-214.6736297607422	59.24858474731447	-770.9617309570315	-220.7161102294922	59.43275833129884	-729.2424926757814	-259.1645812988282	35.13563537597657	-680.0911254882814	
